<?xml version="1.0" encoding="utf-8"?>
<!-- Generator: Adobe Illustrator 16.0.0, SVG Export Plug-In . SVG Version: 6.00 Build 0)  -->
<!DOCTYPE svg PUBLIC "-//W3C//DTD SVG 1.1//EN" "http://www.w3.org/Graphics/SVG/1.1/DTD/svg11.dtd">
<svg version="1.1" id="Layer_1" xmlns="http://www.w3.org/2000/svg" xmlns:xlink="http://www.w3.org/1999/xlink" x="0px" y="0px"
	 width="180px" height="43.485px" viewBox="0 0 180 43.485" enable-background="new 0 0 180 43.485" xml:space="preserve">
<g>
	<g>
		<path fill="#FF9F36" d="M43.355,41.777c-0.057,0.286-0.149,0.536-0.275,0.75c-0.127,0.214-0.289,0.392-0.485,0.533
			c-0.196,0.141-0.43,0.247-0.699,0.318c-0.27,0.071-0.576,0.107-0.918,0.107c-0.297,0-0.567-0.03-0.812-0.088
			c-0.245-0.059-0.44-0.13-0.586-0.211c-0.054-0.036-0.09-0.071-0.11-0.104c-0.02-0.034-0.029-0.078-0.029-0.131
			c0-0.021,0-0.052,0.002-0.091c0.002-0.039,0.007-0.079,0.016-0.118c0.009-0.04,0.02-0.08,0.032-0.123
			c0.012-0.043,0.028-0.082,0.048-0.115c0.02-0.034,0.043-0.061,0.072-0.08c0.028-0.02,0.059-0.03,0.091-0.03
			c0.043,0,0.097,0.019,0.161,0.056c0.064,0.038,0.15,0.08,0.257,0.126c0.107,0.046,0.24,0.089,0.399,0.128
			c0.159,0.04,0.354,0.059,0.586,0.059c0.193,0,0.367-0.02,0.522-0.059c0.155-0.039,0.291-0.098,0.407-0.177
			c0.116-0.079,0.21-0.179,0.284-0.3c0.073-0.122,0.127-0.266,0.164-0.434c0.061-0.325,0.121-0.595,0.182-0.809
			c0.061-0.214,0.11-0.38,0.15-0.498c-0.058,0.132-0.148,0.265-0.273,0.399s-0.27,0.257-0.434,0.37
			c-0.165,0.112-0.345,0.203-0.541,0.273s-0.396,0.104-0.6,0.104c-0.268,0-0.495-0.045-0.68-0.134
			c-0.186-0.089-0.335-0.212-0.447-0.367s-0.194-0.339-0.244-0.551c-0.05-0.212-0.075-0.442-0.075-0.688
			c0-0.207,0.02-0.44,0.059-0.699c0.039-0.259,0.102-0.52,0.188-0.782c0.085-0.263,0.195-0.518,0.329-0.766
			c0.134-0.248,0.295-0.469,0.485-0.664c0.189-0.194,0.408-0.351,0.656-0.469c0.248-0.118,0.529-0.177,0.843-0.177
			c0.318,0,0.59,0.064,0.817,0.193c0.227,0.129,0.429,0.305,0.608,0.53l0.102-0.487c0.014-0.057,0.055-0.098,0.123-0.123
			s0.173-0.038,0.316-0.038c0.071,0,0.131,0.002,0.18,0.008c0.048,0.005,0.086,0.016,0.115,0.03
			c0.028,0.014,0.046,0.032,0.053,0.053c0.007,0.021,0.009,0.045,0.005,0.07L43.355,41.777z M43.27,37.835
			c-0.168-0.246-0.349-0.431-0.543-0.554c-0.195-0.123-0.414-0.185-0.656-0.185c-0.193,0-0.366,0.045-0.52,0.134
			c-0.153,0.089-0.29,0.208-0.41,0.356c-0.12,0.148-0.224,0.319-0.313,0.512c-0.089,0.193-0.162,0.39-0.217,0.592
			s-0.096,0.401-0.123,0.6s-0.04,0.378-0.04,0.539c0,0.153,0.013,0.294,0.04,0.423s0.07,0.238,0.128,0.33
			c0.059,0.091,0.136,0.163,0.23,0.217c0.094,0.053,0.209,0.08,0.345,0.08c0.196,0,0.394-0.054,0.592-0.163
			c0.198-0.109,0.383-0.26,0.555-0.453c0.171-0.193,0.323-0.42,0.455-0.683c0.132-0.263,0.23-0.549,0.294-0.86L43.27,37.835z"/>
		<path fill="#FF9F36" d="M49.8,37.562c0,0.247-0.057,0.468-0.171,0.664c-0.114,0.197-0.292,0.364-0.535,0.503
			c-0.243,0.139-0.554,0.247-0.932,0.321c-0.378,0.075-0.832,0.113-1.36,0.113h-0.567c-0.025,0.118-0.042,0.232-0.051,0.342
			c-0.009,0.111-0.014,0.214-0.014,0.311c0,0.357,0.088,0.63,0.265,0.819s0.463,0.284,0.859,0.284c0.229,0,0.434-0.017,0.616-0.051
			c0.182-0.034,0.34-0.07,0.474-0.11c0.134-0.039,0.244-0.076,0.33-0.11c0.085-0.034,0.145-0.051,0.177-0.051
			s0.056,0.012,0.072,0.035c0.016,0.023,0.024,0.056,0.024,0.099c0,0.036-0.003,0.079-0.011,0.128
			c-0.007,0.05-0.018,0.101-0.032,0.153c-0.015,0.052-0.033,0.101-0.057,0.147s-0.049,0.085-0.078,0.118
			c-0.042,0.043-0.119,0.085-0.228,0.126s-0.238,0.079-0.388,0.112s-0.314,0.062-0.493,0.083c-0.179,0.021-0.357,0.032-0.536,0.032
			c-0.318,0-0.596-0.036-0.835-0.107s-0.438-0.181-0.597-0.329c-0.159-0.148-0.278-0.333-0.356-0.554
			c-0.079-0.221-0.118-0.482-0.118-0.782c0-0.232,0.022-0.481,0.067-0.747c0.044-0.266,0.115-0.529,0.211-0.79
			s0.221-0.511,0.375-0.75c0.153-0.239,0.336-0.45,0.549-0.632s0.458-0.329,0.736-0.439c0.278-0.11,0.592-0.166,0.942-0.166
			c0.3,0,0.555,0.038,0.763,0.113c0.209,0.075,0.38,0.171,0.514,0.289s0.231,0.249,0.292,0.394
			C49.77,37.275,49.8,37.419,49.8,37.562z M48.896,37.643c0-0.182-0.072-0.33-0.214-0.442c-0.143-0.113-0.346-0.169-0.61-0.169
			c-0.232,0-0.438,0.041-0.616,0.121c-0.179,0.081-0.336,0.188-0.474,0.324c-0.138,0.136-0.255,0.293-0.354,0.474
			c-0.099,0.181-0.178,0.371-0.238,0.57h0.546c0.375,0,0.688-0.023,0.939-0.069c0.252-0.046,0.454-0.11,0.605-0.19
			c0.151-0.08,0.259-0.174,0.321-0.281C48.864,37.873,48.896,37.76,48.896,37.643z"/>
		<path fill="#FF9F36" d="M53.947,36.63c0,0.032-0.002,0.067-0.005,0.104c-0.003,0.037-0.011,0.076-0.021,0.115
			c-0.011,0.04-0.025,0.079-0.042,0.118c-0.019,0.04-0.037,0.074-0.057,0.104s-0.042,0.054-0.067,0.072s-0.053,0.026-0.085,0.026
			h-1.232l-0.541,2.688c-0.014,0.075-0.026,0.159-0.037,0.252s-0.016,0.169-0.016,0.23c0,0.182,0.038,0.315,0.115,0.399
			c0.076,0.084,0.201,0.125,0.372,0.125c0.096,0,0.18-0.008,0.251-0.024s0.133-0.033,0.185-0.051
			c0.051-0.018,0.097-0.035,0.136-0.051s0.073-0.024,0.102-0.024c0.028,0,0.051,0.01,0.067,0.03s0.024,0.056,0.024,0.109
			c0,0.047-0.004,0.098-0.013,0.153c-0.009,0.056-0.021,0.11-0.035,0.164c-0.014,0.053-0.032,0.102-0.053,0.145
			c-0.021,0.042-0.045,0.077-0.07,0.102c-0.029,0.025-0.071,0.05-0.128,0.075s-0.123,0.047-0.198,0.067
			c-0.075,0.019-0.155,0.035-0.238,0.045c-0.084,0.011-0.167,0.016-0.249,0.016c-0.2,0-0.373-0.021-0.52-0.064
			s-0.27-0.11-0.37-0.201c-0.1-0.091-0.174-0.205-0.222-0.343c-0.048-0.137-0.072-0.303-0.072-0.496c0-0.042,0.002-0.09,0.005-0.142
			s0.01-0.106,0.019-0.164c0.008-0.057,0.018-0.114,0.026-0.171c0.009-0.057,0.019-0.11,0.03-0.161l0.541-2.71h-0.669
			c-0.039,0-0.069-0.011-0.091-0.035c-0.021-0.023-0.032-0.068-0.032-0.137c0-0.05,0.005-0.107,0.016-0.174
			c0.011-0.066,0.027-0.127,0.048-0.185s0.049-0.105,0.083-0.145c0.034-0.039,0.074-0.059,0.121-0.059h0.675l0.23-1.146
			c0.003-0.025,0.015-0.048,0.035-0.07s0.047-0.04,0.083-0.056s0.083-0.027,0.142-0.035s0.131-0.011,0.217-0.011
			c0.086,0,0.156,0.003,0.212,0.011c0.055,0.007,0.098,0.019,0.128,0.035c0.03,0.016,0.05,0.035,0.059,0.056s0.012,0.045,0.008,0.07
			l-0.23,1.146h1.232c0.054,0,0.089,0.02,0.107,0.059C53.938,36.536,53.947,36.581,53.947,36.63z"/>
		<path fill="#FF9F36" d="M61.542,36.539c0,0.04-0.003,0.08-0.011,0.121s-0.02,0.08-0.038,0.115
			c-0.118,0.325-0.246,0.663-0.385,1.015c-0.139,0.352-0.302,0.72-0.487,1.104c-0.186,0.384-0.403,0.784-0.651,1.202
			c-0.249,0.417-0.543,0.857-0.886,1.317l-1.387,1.891c-0.021,0.028-0.048,0.053-0.08,0.075c-0.032,0.021-0.072,0.041-0.118,0.057
			c-0.046,0.016-0.103,0.027-0.168,0.035c-0.066,0.007-0.144,0.011-0.233,0.011c-0.097,0-0.176-0.005-0.238-0.014
			c-0.063-0.009-0.11-0.024-0.142-0.045s-0.046-0.05-0.043-0.085c0.003-0.036,0.025-0.079,0.064-0.129l1.307-1.676l-0.798-4.707
			c-0.007-0.043-0.013-0.082-0.016-0.118c-0.004-0.035-0.005-0.066-0.005-0.091c0-0.039,0.006-0.072,0.019-0.099
			s0.037-0.048,0.072-0.064s0.083-0.027,0.142-0.032s0.131-0.008,0.217-0.008c0.097,0,0.172,0.002,0.228,0.008
			s0.098,0.015,0.129,0.027c0.03,0.013,0.051,0.032,0.064,0.056c0.013,0.025,0.021,0.056,0.024,0.091l0.626,3.931h0.011
			c0.221-0.311,0.421-0.626,0.6-0.948s0.343-0.647,0.493-0.978c0.15-0.33,0.288-0.664,0.415-1.001
			c0.126-0.337,0.246-0.679,0.356-1.025c0.007-0.028,0.02-0.053,0.04-0.072c0.02-0.02,0.048-0.037,0.085-0.051
			c0.038-0.014,0.088-0.024,0.153-0.03s0.145-0.008,0.241-0.008c0.161,0,0.268,0.011,0.321,0.032
			C61.515,36.464,61.542,36.496,61.542,36.539z"/>
		<path fill="#FF9F36" d="M66.814,38.172c0,0.265-0.025,0.534-0.075,0.809c-0.05,0.275-0.126,0.54-0.228,0.795
			c-0.102,0.255-0.231,0.496-0.388,0.721c-0.157,0.225-0.342,0.421-0.554,0.589c-0.212,0.168-0.454,0.301-0.723,0.399
			s-0.57,0.147-0.902,0.147c-0.343,0-0.637-0.042-0.881-0.123c-0.245-0.082-0.445-0.202-0.603-0.359s-0.273-0.35-0.348-0.579
			C62.038,40.344,62,40.084,62,39.795c0-0.264,0.024-0.534,0.072-0.809s0.124-0.539,0.228-0.793c0.104-0.253,0.233-0.493,0.388-0.72
			c0.155-0.227,0.339-0.424,0.552-0.592c0.212-0.167,0.453-0.3,0.723-0.399c0.269-0.098,0.57-0.147,0.902-0.147
			c0.343,0,0.636,0.042,0.881,0.126c0.244,0.084,0.446,0.205,0.605,0.362s0.276,0.35,0.351,0.578
			C66.777,37.63,66.814,37.887,66.814,38.172z M65.883,38.226c0-0.178-0.019-0.339-0.057-0.482c-0.037-0.143-0.1-0.263-0.187-0.361
			c-0.088-0.098-0.202-0.174-0.343-0.228c-0.142-0.054-0.312-0.081-0.512-0.081c-0.214,0-0.409,0.039-0.583,0.115
			c-0.175,0.077-0.332,0.18-0.469,0.311c-0.138,0.13-0.257,0.283-0.359,0.458c-0.102,0.175-0.186,0.361-0.251,0.56
			c-0.066,0.198-0.115,0.402-0.147,0.61c-0.032,0.209-0.048,0.414-0.048,0.613c0,0.179,0.02,0.339,0.059,0.482
			c0.039,0.143,0.103,0.265,0.19,0.364c0.087,0.1,0.201,0.177,0.34,0.23c0.139,0.053,0.309,0.08,0.509,0.08
			c0.217,0,0.413-0.038,0.586-0.115c0.173-0.077,0.328-0.181,0.466-0.313c0.137-0.132,0.257-0.286,0.359-0.461
			c0.102-0.174,0.186-0.362,0.251-0.562c0.066-0.2,0.115-0.403,0.147-0.611C65.867,38.63,65.883,38.426,65.883,38.226z"/>
		<path fill="#FF9F36" d="M71.68,41.396c-0.003,0.029-0.014,0.054-0.032,0.075s-0.042,0.039-0.075,0.051s-0.074,0.022-0.126,0.029
			s-0.115,0.011-0.19,0.011c-0.072,0-0.131-0.003-0.18-0.011c-0.048-0.007-0.085-0.017-0.112-0.029s-0.045-0.029-0.054-0.051
			s-0.01-0.046-0.002-0.075l0.177-0.905c-0.057,0.121-0.147,0.249-0.271,0.383s-0.268,0.258-0.434,0.372
			c-0.166,0.115-0.348,0.207-0.546,0.278s-0.399,0.107-0.603,0.107c-0.243,0-0.447-0.033-0.613-0.099s-0.3-0.157-0.402-0.273
			c-0.102-0.116-0.175-0.253-0.219-0.413c-0.045-0.159-0.067-0.333-0.067-0.522c0-0.118,0.008-0.238,0.024-0.362
			c0.016-0.123,0.037-0.247,0.062-0.372l0.595-3.021c0.007-0.025,0.019-0.048,0.037-0.07c0.018-0.021,0.046-0.039,0.083-0.053
			c0.038-0.014,0.086-0.024,0.145-0.03c0.059-0.005,0.131-0.008,0.217-0.008c0.085,0,0.156,0.002,0.211,0.008
			c0.055,0.005,0.098,0.016,0.128,0.03s0.05,0.032,0.059,0.053c0.009,0.021,0.011,0.045,0.008,0.07l-0.589,2.988
			c-0.021,0.093-0.038,0.189-0.048,0.289c-0.011,0.1-0.016,0.202-0.016,0.306c0,0.107,0.01,0.204,0.029,0.292
			c0.02,0.088,0.054,0.164,0.102,0.228c0.048,0.064,0.11,0.114,0.188,0.15c0.077,0.036,0.17,0.053,0.281,0.053
			c0.189,0,0.383-0.054,0.581-0.163c0.198-0.109,0.383-0.26,0.554-0.453s0.324-0.422,0.458-0.688
			c0.134-0.266,0.233-0.556,0.297-0.871l0.423-2.131c0.003-0.025,0.015-0.048,0.035-0.07c0.02-0.021,0.048-0.039,0.086-0.053
			c0.037-0.014,0.085-0.024,0.145-0.03c0.059-0.005,0.131-0.008,0.217-0.008c0.085,0,0.156,0.002,0.211,0.008
			c0.055,0.005,0.098,0.016,0.128,0.03s0.05,0.032,0.059,0.053c0.009,0.021,0.011,0.045,0.008,0.07L71.68,41.396z"/>
		<path fill="#FF9F36" d="M77.129,36.582c0,0.014-0.002,0.042-0.008,0.083s-0.012,0.088-0.019,0.142
			c-0.007,0.053-0.018,0.109-0.032,0.166s-0.032,0.109-0.053,0.158s-0.044,0.088-0.067,0.121c-0.023,0.032-0.049,0.048-0.078,0.048
			c-0.029,0-0.06-0.006-0.094-0.019c-0.034-0.012-0.072-0.027-0.113-0.045c-0.041-0.018-0.088-0.033-0.142-0.045
			c-0.054-0.013-0.116-0.019-0.188-0.019c-0.122,0-0.262,0.053-0.42,0.158c-0.159,0.105-0.315,0.251-0.469,0.437
			s-0.294,0.405-0.42,0.659c-0.127,0.254-0.221,0.528-0.281,0.825l-0.423,2.147c-0.007,0.029-0.02,0.053-0.038,0.072
			c-0.018,0.02-0.045,0.037-0.08,0.051c-0.036,0.014-0.083,0.025-0.142,0.032s-0.131,0.011-0.217,0.011
			c-0.089,0-0.162-0.003-0.217-0.011c-0.056-0.007-0.099-0.018-0.129-0.032c-0.03-0.014-0.05-0.031-0.059-0.051
			c-0.009-0.02-0.01-0.043-0.003-0.072l0.958-4.825c0.003-0.025,0.014-0.048,0.032-0.07c0.018-0.021,0.044-0.039,0.081-0.053
			c0.035-0.014,0.079-0.024,0.131-0.03c0.051-0.005,0.113-0.008,0.185-0.008c0.075,0,0.137,0.002,0.185,0.008
			c0.048,0.005,0.086,0.016,0.113,0.03c0.026,0.014,0.043,0.032,0.051,0.053c0.007,0.021,0.009,0.045,0.005,0.07l-0.177,0.878
			c0.082-0.146,0.179-0.287,0.292-0.423c0.112-0.135,0.234-0.254,0.367-0.356c0.132-0.102,0.271-0.183,0.415-0.244
			c0.145-0.061,0.287-0.091,0.426-0.091c0.061,0,0.122,0.005,0.185,0.014s0.121,0.02,0.174,0.032
			c0.053,0.013,0.101,0.027,0.142,0.042c0.041,0.016,0.072,0.035,0.094,0.057C77.119,36.501,77.129,36.536,77.129,36.582z"/>
		<path fill="#FF9F36" d="M83.932,41.396c-0.015,0.061-0.054,0.104-0.118,0.128c-0.064,0.025-0.171,0.038-0.321,0.038
			c-0.072,0-0.131-0.003-0.177-0.011c-0.047-0.007-0.084-0.017-0.113-0.029c-0.029-0.012-0.048-0.028-0.059-0.048
			c-0.011-0.02-0.011-0.045,0-0.078l0.177-0.91c-0.047,0.114-0.131,0.239-0.252,0.375c-0.122,0.136-0.265,0.261-0.431,0.375
			c-0.166,0.115-0.351,0.209-0.554,0.284c-0.204,0.075-0.411,0.113-0.621,0.113c-0.286,0-0.522-0.05-0.71-0.15
			c-0.188-0.1-0.336-0.232-0.447-0.396c-0.111-0.164-0.187-0.35-0.228-0.557c-0.041-0.207-0.062-0.419-0.062-0.637
			c0-0.2,0.019-0.426,0.056-0.68c0.038-0.253,0.098-0.512,0.182-0.776s0.193-0.521,0.327-0.771c0.134-0.25,0.295-0.474,0.485-0.672
			c0.189-0.198,0.409-0.357,0.659-0.477c0.25-0.12,0.534-0.18,0.852-0.18s0.59,0.064,0.817,0.193
			c0.227,0.129,0.429,0.305,0.607,0.53l0.102-0.487c0.014-0.057,0.055-0.098,0.123-0.123s0.173-0.038,0.316-0.038
			c0.071,0,0.131,0.002,0.18,0.008c0.048,0.005,0.086,0.016,0.115,0.03c0.029,0.014,0.046,0.032,0.054,0.053
			c0.007,0.021,0.009,0.045,0.005,0.07L83.932,41.396z M83.766,37.835c-0.168-0.246-0.349-0.431-0.543-0.554
			c-0.195-0.123-0.414-0.185-0.656-0.185c-0.193,0-0.367,0.045-0.522,0.137c-0.155,0.091-0.293,0.211-0.413,0.361
			s-0.223,0.321-0.311,0.511c-0.088,0.191-0.159,0.389-0.214,0.592c-0.056,0.204-0.096,0.404-0.123,0.6s-0.04,0.373-0.04,0.53
			c0,0.125,0.01,0.249,0.029,0.372s0.057,0.235,0.112,0.337c0.056,0.102,0.131,0.184,0.228,0.246
			c0.096,0.063,0.221,0.094,0.375,0.094c0.196,0,0.394-0.054,0.592-0.163s0.383-0.26,0.554-0.453s0.323-0.419,0.456-0.68
			c0.132-0.26,0.23-0.548,0.294-0.862L83.766,37.835z"/>
		<path fill="#FF9F36" d="M90.57,38.082c0,0.207-0.02,0.44-0.059,0.699c-0.04,0.259-0.102,0.521-0.188,0.785
			c-0.085,0.265-0.195,0.521-0.329,0.769c-0.134,0.249-0.296,0.469-0.485,0.662c-0.189,0.192-0.408,0.347-0.656,0.463
			c-0.249,0.116-0.53,0.174-0.844,0.174c-0.161,0-0.307-0.016-0.439-0.048c-0.132-0.032-0.254-0.077-0.364-0.134
			c-0.111-0.057-0.212-0.124-0.305-0.201c-0.093-0.077-0.179-0.162-0.257-0.254l-0.455,2.313c-0.007,0.028-0.019,0.053-0.035,0.075
			s-0.042,0.04-0.078,0.054c-0.036,0.014-0.083,0.025-0.142,0.032c-0.059,0.007-0.133,0.011-0.222,0.011
			c-0.083,0-0.151-0.004-0.207-0.011c-0.055-0.007-0.099-0.018-0.131-0.032s-0.053-0.032-0.062-0.054s-0.012-0.046-0.008-0.075
			l1.355-6.737c0.007-0.057,0.043-0.098,0.107-0.123c0.064-0.025,0.171-0.038,0.322-0.038c0.075,0,0.135,0.002,0.182,0.008
			s0.084,0.015,0.113,0.027c0.028,0.013,0.046,0.03,0.053,0.051c0.007,0.021,0.009,0.047,0.005,0.075l-0.182,0.916
			c0.05-0.118,0.135-0.244,0.255-0.378c0.119-0.134,0.262-0.259,0.428-0.375c0.166-0.116,0.351-0.212,0.554-0.287
			c0.204-0.075,0.411-0.113,0.621-0.113c0.271,0,0.499,0.047,0.683,0.14c0.184,0.093,0.333,0.217,0.447,0.372
			c0.114,0.155,0.196,0.339,0.246,0.552C90.544,37.611,90.57,37.839,90.57,38.082z M89.643,38.141c0-0.153-0.013-0.295-0.04-0.423
			s-0.07-0.239-0.128-0.332c-0.059-0.093-0.136-0.164-0.23-0.214c-0.095-0.05-0.211-0.075-0.351-0.075
			c-0.193,0-0.39,0.054-0.589,0.161c-0.2,0.107-0.385,0.257-0.557,0.45s-0.324,0.42-0.458,0.683
			c-0.134,0.262-0.231,0.549-0.292,0.859l-0.177,0.884c0.168,0.25,0.348,0.437,0.541,0.56s0.41,0.185,0.653,0.185
			c0.189,0,0.361-0.044,0.517-0.134c0.155-0.089,0.293-0.209,0.413-0.359s0.223-0.319,0.311-0.509
			c0.087-0.189,0.161-0.385,0.22-0.589c0.059-0.204,0.102-0.405,0.128-0.605C89.63,38.481,89.643,38.301,89.643,38.141z"/>
		<path fill="#FF9F36" d="M96.33,38.082c0,0.207-0.02,0.44-0.059,0.699c-0.041,0.259-0.102,0.521-0.188,0.785
			c-0.086,0.265-0.196,0.521-0.33,0.769c-0.134,0.249-0.296,0.469-0.485,0.662c-0.189,0.192-0.408,0.347-0.656,0.463
			c-0.248,0.116-0.529,0.174-0.843,0.174c-0.161,0-0.307-0.016-0.439-0.048c-0.132-0.032-0.253-0.077-0.364-0.134
			c-0.111-0.057-0.213-0.124-0.306-0.201s-0.179-0.162-0.257-0.254l-0.455,2.313c-0.007,0.028-0.019,0.053-0.035,0.075
			s-0.042,0.04-0.078,0.054s-0.083,0.025-0.142,0.032c-0.059,0.007-0.133,0.011-0.222,0.011c-0.083,0-0.151-0.004-0.207-0.011
			c-0.056-0.007-0.099-0.018-0.131-0.032c-0.032-0.014-0.053-0.032-0.062-0.054c-0.008-0.021-0.011-0.046-0.008-0.075l1.355-6.737
			c0.007-0.057,0.043-0.098,0.107-0.123c0.064-0.025,0.171-0.038,0.321-0.038c0.075,0,0.136,0.002,0.182,0.008
			s0.084,0.015,0.113,0.027c0.028,0.013,0.046,0.03,0.053,0.051c0.007,0.021,0.009,0.047,0.005,0.075l-0.182,0.916
			c0.05-0.118,0.135-0.244,0.254-0.378c0.12-0.134,0.263-0.259,0.429-0.375c0.166-0.116,0.351-0.212,0.554-0.287
			c0.204-0.075,0.41-0.113,0.621-0.113c0.271,0,0.499,0.047,0.683,0.14c0.184,0.093,0.332,0.217,0.447,0.372
			c0.114,0.155,0.195,0.339,0.247,0.552C96.305,37.611,96.33,37.839,96.33,38.082z M95.404,38.141c0-0.153-0.014-0.295-0.041-0.423
			c-0.026-0.128-0.069-0.239-0.128-0.332c-0.059-0.093-0.136-0.164-0.23-0.214c-0.095-0.05-0.211-0.075-0.351-0.075
			c-0.192,0-0.389,0.054-0.589,0.161c-0.2,0.107-0.386,0.257-0.557,0.45s-0.324,0.42-0.458,0.683
			c-0.134,0.262-0.231,0.549-0.292,0.859l-0.177,0.884c0.167,0.25,0.348,0.437,0.541,0.56c0.192,0.123,0.41,0.185,0.653,0.185
			c0.189,0,0.361-0.044,0.517-0.134c0.155-0.089,0.292-0.209,0.413-0.359c0.119-0.15,0.223-0.319,0.311-0.509
			c0.087-0.189,0.161-0.385,0.22-0.589s0.102-0.405,0.128-0.605C95.39,38.481,95.404,38.301,95.404,38.141z"/>
		<path fill="#FF9F36" d="M103.839,34.381c0,0.015-0.002,0.037-0.006,0.067c-0.004,0.031-0.008,0.064-0.014,0.102
			c-0.005,0.037-0.013,0.077-0.023,0.118s-0.023,0.08-0.038,0.115s-0.03,0.064-0.048,0.085s-0.037,0.032-0.059,0.032
			c-0.025,0-0.057-0.007-0.094-0.021c-0.038-0.014-0.082-0.029-0.132-0.045s-0.108-0.031-0.177-0.045
			c-0.067-0.014-0.143-0.021-0.225-0.021c-0.154,0-0.285,0.023-0.394,0.069c-0.109,0.047-0.203,0.119-0.281,0.217
			c-0.079,0.098-0.145,0.222-0.198,0.372s-0.101,0.327-0.139,0.53l-0.092,0.482h1.077c0.038,0,0.07,0.013,0.094,0.04
			c0.022,0.027,0.034,0.071,0.034,0.131c0,0.04-0.004,0.08-0.011,0.123s-0.016,0.085-0.026,0.126s-0.024,0.08-0.04,0.118
			c-0.017,0.038-0.034,0.071-0.054,0.099c-0.021,0.029-0.042,0.052-0.067,0.07s-0.05,0.026-0.074,0.026h-1.082l-0.916,4.563
			c-0.061,0.3-0.144,0.56-0.246,0.779c-0.104,0.22-0.23,0.402-0.381,0.546c-0.149,0.145-0.323,0.251-0.52,0.321
			c-0.196,0.069-0.417,0.104-0.664,0.104c-0.16,0-0.291-0.013-0.394-0.038c-0.102-0.025-0.164-0.048-0.189-0.07
			c-0.015-0.018-0.025-0.037-0.032-0.059s-0.011-0.05-0.011-0.086c0-0.014,0.003-0.039,0.008-0.072
			c0.006-0.034,0.012-0.069,0.019-0.107c0.008-0.038,0.017-0.077,0.027-0.118c0.011-0.042,0.023-0.08,0.037-0.115
			c0.015-0.036,0.031-0.064,0.048-0.086c0.019-0.021,0.04-0.032,0.064-0.032c0.025,0,0.05,0.003,0.072,0.008
			c0.023,0.005,0.049,0.011,0.075,0.016s0.059,0.011,0.097,0.016c0.037,0.005,0.085,0.008,0.142,0.008
			c0.15,0,0.28-0.023,0.389-0.069c0.108-0.047,0.201-0.119,0.278-0.217c0.076-0.098,0.141-0.222,0.192-0.372s0.1-0.331,0.143-0.541
			l0.878-4.381h-0.686c-0.036,0-0.063-0.011-0.083-0.035c-0.021-0.023-0.029-0.067-0.029-0.131c0-0.028,0.001-0.063,0.005-0.104
			s0.01-0.083,0.02-0.126c0.008-0.043,0.02-0.084,0.034-0.123c0.015-0.04,0.032-0.075,0.054-0.107s0.044-0.058,0.067-0.078
			c0.022-0.02,0.052-0.029,0.088-0.029h0.675l0.134-0.669c0.057-0.292,0.14-0.549,0.246-0.769c0.107-0.22,0.236-0.401,0.389-0.543
			c0.151-0.143,0.327-0.249,0.524-0.319c0.198-0.07,0.417-0.104,0.656-0.104c0.078,0,0.161,0.005,0.246,0.014
			c0.086,0.009,0.165,0.021,0.239,0.037c0.072,0.016,0.137,0.035,0.192,0.057c0.055,0.021,0.094,0.042,0.115,0.064
			c0.021,0.018,0.037,0.043,0.048,0.075S103.839,34.345,103.839,34.381z"/>
		<path fill="#FF9F36" d="M106.969,36.582c0,0.014-0.003,0.042-0.008,0.083c-0.006,0.041-0.012,0.088-0.019,0.142
			c-0.008,0.053-0.019,0.109-0.032,0.166c-0.015,0.057-0.032,0.109-0.054,0.158s-0.044,0.088-0.067,0.121s-0.049,0.048-0.077,0.048
			c-0.029,0-0.061-0.006-0.094-0.019c-0.034-0.012-0.071-0.027-0.112-0.045c-0.042-0.018-0.089-0.033-0.143-0.045
			c-0.053-0.013-0.116-0.019-0.188-0.019c-0.121,0-0.262,0.053-0.42,0.158c-0.159,0.105-0.315,0.251-0.469,0.437
			c-0.154,0.186-0.294,0.405-0.42,0.659c-0.128,0.254-0.222,0.528-0.281,0.825l-0.424,2.147c-0.007,0.029-0.02,0.053-0.037,0.072
			c-0.018,0.02-0.045,0.037-0.08,0.051c-0.036,0.014-0.083,0.025-0.143,0.032c-0.059,0.007-0.131,0.011-0.217,0.011
			c-0.09,0-0.162-0.003-0.217-0.011c-0.056-0.007-0.098-0.018-0.128-0.032c-0.031-0.014-0.051-0.031-0.06-0.051
			c-0.009-0.02-0.01-0.043-0.002-0.072l0.958-4.825c0.004-0.025,0.015-0.048,0.032-0.07c0.018-0.021,0.044-0.039,0.08-0.053
			s0.079-0.024,0.132-0.03c0.052-0.005,0.113-0.008,0.185-0.008c0.075,0,0.137,0.002,0.185,0.008s0.086,0.016,0.112,0.03
			c0.027,0.014,0.044,0.032,0.051,0.053c0.007,0.021,0.009,0.045,0.006,0.07l-0.177,0.878c0.082-0.146,0.18-0.287,0.292-0.423
			c0.112-0.135,0.234-0.254,0.366-0.356s0.271-0.183,0.415-0.244c0.146-0.061,0.287-0.091,0.426-0.091
			c0.061,0,0.122,0.005,0.186,0.014c0.062,0.009,0.12,0.02,0.174,0.032s0.101,0.027,0.142,0.042
			c0.041,0.016,0.072,0.035,0.094,0.057C106.958,36.501,106.969,36.536,106.969,36.582z"/>
		<path fill="#FF9F36" d="M112.054,38.172c0,0.265-0.024,0.534-0.075,0.809c-0.049,0.275-0.126,0.54-0.228,0.795
			c-0.102,0.255-0.23,0.496-0.388,0.721c-0.157,0.225-0.342,0.421-0.555,0.589c-0.212,0.168-0.453,0.301-0.723,0.399
			s-0.57,0.147-0.902,0.147c-0.343,0-0.637-0.042-0.881-0.123c-0.245-0.082-0.445-0.202-0.603-0.359s-0.273-0.35-0.349-0.579
			c-0.075-0.228-0.112-0.487-0.112-0.776c0-0.264,0.024-0.534,0.072-0.809s0.125-0.539,0.228-0.793
			c0.104-0.253,0.233-0.493,0.389-0.72c0.155-0.227,0.339-0.424,0.552-0.592c0.213-0.167,0.453-0.3,0.723-0.399
			c0.27-0.098,0.57-0.147,0.902-0.147c0.343,0,0.637,0.042,0.881,0.126c0.245,0.084,0.446,0.205,0.605,0.362s0.275,0.35,0.351,0.578
			C112.017,37.63,112.054,37.887,112.054,38.172z M111.122,38.226c0-0.178-0.019-0.339-0.057-0.482
			c-0.037-0.143-0.1-0.263-0.188-0.361c-0.087-0.098-0.201-0.174-0.343-0.228c-0.141-0.054-0.311-0.081-0.511-0.081
			c-0.215,0-0.408,0.039-0.584,0.115c-0.175,0.077-0.331,0.18-0.469,0.311c-0.137,0.13-0.257,0.283-0.358,0.458
			c-0.103,0.175-0.186,0.361-0.252,0.56c-0.065,0.198-0.115,0.402-0.147,0.61c-0.032,0.209-0.048,0.414-0.048,0.613
			c0,0.179,0.02,0.339,0.059,0.482c0.039,0.143,0.104,0.265,0.19,0.364c0.088,0.1,0.2,0.177,0.34,0.23
			c0.14,0.053,0.31,0.08,0.509,0.08c0.218,0,0.414-0.038,0.586-0.115c0.174-0.077,0.329-0.181,0.467-0.313
			c0.138-0.132,0.257-0.286,0.358-0.461c0.102-0.174,0.187-0.362,0.252-0.562c0.066-0.2,0.115-0.403,0.147-0.611
			C111.105,38.63,111.122,38.426,111.122,38.226z"/>
		<path fill="#FF9F36" d="M119.978,41.396c-0.003,0.029-0.014,0.053-0.032,0.072c-0.018,0.02-0.045,0.037-0.083,0.051
			c-0.037,0.014-0.085,0.025-0.145,0.032c-0.059,0.007-0.131,0.011-0.217,0.011c-0.085,0-0.155-0.003-0.211-0.011
			s-0.099-0.018-0.129-0.032c-0.03-0.014-0.051-0.031-0.062-0.051c-0.011-0.02-0.013-0.043-0.005-0.072l0.594-2.978
			c0.019-0.104,0.033-0.202,0.046-0.294s0.019-0.186,0.019-0.279c0-0.228-0.044-0.41-0.131-0.546
			c-0.088-0.136-0.24-0.204-0.458-0.204c-0.179,0-0.363,0.055-0.555,0.163c-0.19,0.109-0.372,0.259-0.543,0.45
			c-0.172,0.191-0.324,0.417-0.456,0.68c-0.132,0.262-0.228,0.547-0.289,0.854l-0.428,2.153c-0.008,0.029-0.02,0.053-0.038,0.072
			c-0.018,0.02-0.045,0.037-0.083,0.051c-0.037,0.014-0.086,0.025-0.145,0.032s-0.131,0.011-0.217,0.011s-0.156-0.003-0.212-0.011
			c-0.055-0.007-0.097-0.018-0.125-0.032c-0.029-0.014-0.049-0.031-0.06-0.051c-0.011-0.02-0.014-0.043-0.011-0.072l0.595-2.978
			c0.024-0.107,0.042-0.212,0.051-0.316s0.014-0.2,0.014-0.289c0-0.218-0.045-0.392-0.134-0.522
			c-0.089-0.13-0.241-0.195-0.455-0.195c-0.183,0-0.368,0.055-0.558,0.163c-0.189,0.109-0.369,0.259-0.541,0.45
			c-0.171,0.191-0.323,0.417-0.455,0.68c-0.132,0.262-0.229,0.547-0.289,0.854l-0.429,2.153c-0.007,0.029-0.02,0.053-0.037,0.072
			c-0.019,0.02-0.045,0.037-0.08,0.051c-0.036,0.014-0.083,0.025-0.143,0.032c-0.059,0.007-0.131,0.011-0.217,0.011
			c-0.089,0-0.161-0.003-0.217-0.011s-0.099-0.018-0.128-0.032c-0.03-0.014-0.051-0.031-0.06-0.051
			c-0.009-0.02-0.01-0.043-0.003-0.072l0.97-4.825c0.004-0.025,0.014-0.048,0.029-0.07c0.017-0.021,0.041-0.039,0.075-0.053
			s0.077-0.024,0.129-0.03c0.051-0.005,0.112-0.008,0.185-0.008c0.075,0,0.137,0.002,0.185,0.008s0.086,0.016,0.112,0.03
			c0.027,0.014,0.044,0.032,0.051,0.053c0.008,0.021,0.009,0.045,0.006,0.07l-0.183,0.921c0.054-0.122,0.143-0.25,0.266-0.386
			s0.267-0.26,0.431-0.375c0.164-0.114,0.344-0.209,0.538-0.284c0.195-0.075,0.394-0.113,0.598-0.113
			c0.214,0,0.398,0.03,0.552,0.088c0.153,0.059,0.279,0.14,0.377,0.241c0.099,0.102,0.171,0.223,0.217,0.364
			c0.047,0.141,0.075,0.295,0.086,0.463c0.072-0.125,0.17-0.255,0.295-0.391s0.27-0.26,0.434-0.372
			c0.164-0.113,0.343-0.207,0.535-0.281c0.193-0.075,0.39-0.113,0.59-0.113c0.238,0,0.438,0.034,0.6,0.102
			c0.16,0.068,0.291,0.161,0.391,0.278s0.172,0.255,0.215,0.413c0.042,0.157,0.063,0.329,0.063,0.514
			c0,0.125-0.007,0.248-0.021,0.369c-0.014,0.122-0.034,0.247-0.059,0.375L119.978,41.396z"/>
		<path fill="#FF9F36" d="M125.2,41.396c-0.008,0.029-0.021,0.053-0.037,0.072c-0.02,0.02-0.046,0.037-0.081,0.051
			c-0.036,0.014-0.083,0.025-0.142,0.032s-0.131,0.011-0.217,0.011c-0.09,0-0.162-0.003-0.217-0.011
			c-0.057-0.007-0.1-0.018-0.129-0.032c-0.03-0.014-0.051-0.031-0.059-0.051c-0.01-0.02-0.011-0.043-0.003-0.072l1.425-7.155
			c0.007-0.028,0.019-0.054,0.034-0.075c0.017-0.021,0.043-0.039,0.081-0.053c0.037-0.014,0.085-0.025,0.145-0.032
			c0.059-0.007,0.133-0.011,0.222-0.011c0.086,0,0.155,0.004,0.212,0.011c0.055,0.007,0.098,0.018,0.129,0.032
			c0.029,0.014,0.048,0.032,0.056,0.053c0.007,0.021,0.008,0.047,0.006,0.075L125.2,41.396z"/>
		<path fill="#FF9F36" d="M131.838,38.172c0,0.265-0.025,0.534-0.074,0.809c-0.051,0.275-0.126,0.54-0.228,0.795
			c-0.103,0.255-0.232,0.496-0.389,0.721c-0.158,0.225-0.343,0.421-0.555,0.589c-0.213,0.168-0.453,0.301-0.723,0.399
			c-0.271,0.098-0.57,0.147-0.902,0.147c-0.343,0-0.638-0.042-0.881-0.123c-0.245-0.082-0.446-0.202-0.603-0.359
			c-0.158-0.157-0.273-0.35-0.349-0.579c-0.074-0.228-0.112-0.487-0.112-0.776c0-0.264,0.024-0.534,0.072-0.809
			c0.049-0.275,0.123-0.539,0.228-0.793c0.104-0.253,0.233-0.493,0.389-0.72c0.155-0.227,0.339-0.424,0.552-0.592
			c0.211-0.167,0.452-0.3,0.723-0.399c0.27-0.098,0.57-0.147,0.902-0.147c0.343,0,0.636,0.042,0.881,0.126
			c0.244,0.084,0.446,0.205,0.605,0.362c0.158,0.157,0.275,0.35,0.351,0.578C131.801,37.63,131.838,37.887,131.838,38.172z
			 M130.906,38.226c0-0.178-0.019-0.339-0.056-0.482c-0.038-0.143-0.101-0.263-0.188-0.361c-0.089-0.098-0.202-0.174-0.343-0.228
			c-0.143-0.054-0.313-0.081-0.512-0.081c-0.214,0-0.41,0.039-0.584,0.115c-0.175,0.077-0.332,0.18-0.469,0.311
			c-0.138,0.13-0.257,0.283-0.358,0.458s-0.187,0.361-0.252,0.56c-0.066,0.198-0.115,0.402-0.147,0.61
			c-0.032,0.209-0.048,0.414-0.048,0.613c0,0.179,0.019,0.339,0.059,0.482c0.039,0.143,0.103,0.265,0.19,0.364
			c0.087,0.1,0.201,0.177,0.34,0.23c0.14,0.053,0.309,0.08,0.509,0.08c0.217,0,0.412-0.038,0.587-0.115
			c0.173-0.077,0.328-0.181,0.466-0.313c0.137-0.132,0.257-0.286,0.358-0.461c0.102-0.174,0.185-0.362,0.252-0.562
			c0.065-0.2,0.115-0.403,0.147-0.611C130.891,38.63,130.906,38.426,130.906,38.226z"/>
		<path fill="#FF9F36" d="M136.929,37c0,0.064-0.007,0.131-0.019,0.198c-0.014,0.068-0.032,0.131-0.057,0.19
			c-0.025,0.059-0.055,0.108-0.088,0.147c-0.035,0.04-0.072,0.059-0.115,0.059c-0.051,0-0.102-0.026-0.155-0.078
			s-0.125-0.11-0.212-0.174c-0.088-0.064-0.198-0.123-0.332-0.177c-0.134-0.053-0.305-0.08-0.512-0.08
			c-0.229,0-0.431,0.047-0.607,0.142s-0.331,0.218-0.461,0.369c-0.131,0.152-0.238,0.324-0.323,0.517
			c-0.086,0.193-0.155,0.388-0.209,0.583c-0.054,0.197-0.093,0.387-0.115,0.57c-0.024,0.184-0.035,0.344-0.035,0.479
			c0,0.368,0.08,0.646,0.241,0.835c0.16,0.189,0.398,0.284,0.718,0.284c0.231,0,0.431-0.028,0.597-0.085s0.307-0.122,0.423-0.195
			c0.115-0.073,0.212-0.139,0.287-0.196c0.075-0.057,0.141-0.085,0.198-0.085c0.028,0,0.051,0.013,0.066,0.04
			c0.017,0.027,0.024,0.065,0.024,0.115c0,0.043-0.004,0.094-0.011,0.152c-0.008,0.059-0.019,0.12-0.035,0.182
			c-0.016,0.063-0.036,0.121-0.059,0.174c-0.024,0.053-0.057,0.103-0.099,0.147c-0.043,0.045-0.118,0.099-0.226,0.164
			c-0.106,0.064-0.231,0.123-0.372,0.174c-0.142,0.052-0.294,0.095-0.458,0.129c-0.164,0.034-0.335,0.051-0.509,0.051
			c-0.575,0-1.004-0.146-1.288-0.439c-0.283-0.292-0.426-0.728-0.426-1.307c0-0.217,0.02-0.456,0.057-0.715
			c0.037-0.259,0.101-0.52,0.19-0.782c0.088-0.263,0.203-0.517,0.343-0.763c0.139-0.247,0.311-0.465,0.514-0.656
			c0.203-0.191,0.439-0.343,0.707-0.458c0.268-0.114,0.574-0.171,0.921-0.171c0.143,0,0.28,0.012,0.412,0.035
			s0.256,0.054,0.373,0.094c0.115,0.04,0.221,0.088,0.315,0.147c0.094,0.059,0.168,0.112,0.22,0.158
			c0.051,0.046,0.083,0.085,0.097,0.118C136.922,36.925,136.929,36.96,136.929,37z"/>
		<path fill="#FF9F36" d="M141.321,41.396c-0.015,0.061-0.054,0.104-0.117,0.128c-0.064,0.025-0.172,0.038-0.321,0.038
			c-0.073,0-0.132-0.003-0.177-0.011c-0.047-0.007-0.085-0.017-0.113-0.029c-0.029-0.012-0.048-0.028-0.059-0.048
			c-0.011-0.02-0.011-0.045,0-0.078l0.177-0.91c-0.047,0.114-0.131,0.239-0.252,0.375c-0.121,0.136-0.265,0.261-0.431,0.375
			c-0.166,0.115-0.351,0.209-0.555,0.284c-0.203,0.075-0.411,0.113-0.621,0.113c-0.286,0-0.522-0.05-0.71-0.15
			c-0.188-0.1-0.337-0.232-0.446-0.396c-0.111-0.164-0.188-0.35-0.229-0.557c-0.041-0.207-0.062-0.419-0.062-0.637
			c0-0.2,0.02-0.426,0.057-0.68c0.037-0.253,0.098-0.512,0.182-0.776c0.083-0.264,0.193-0.521,0.327-0.771s0.295-0.474,0.484-0.672
			s0.408-0.357,0.659-0.477c0.249-0.12,0.532-0.18,0.852-0.18c0.317,0,0.589,0.064,0.816,0.193c0.227,0.129,0.429,0.305,0.607,0.53
			l0.103-0.487c0.013-0.057,0.055-0.098,0.123-0.123c0.066-0.025,0.173-0.038,0.315-0.038c0.071,0,0.132,0.002,0.18,0.008
			s0.086,0.016,0.115,0.03c0.028,0.014,0.046,0.032,0.054,0.053c0.007,0.021,0.008,0.045,0.005,0.07L141.321,41.396z
			 M141.155,37.835c-0.169-0.246-0.35-0.431-0.543-0.554c-0.196-0.123-0.414-0.185-0.656-0.185c-0.193,0-0.367,0.045-0.522,0.137
			c-0.155,0.091-0.293,0.211-0.412,0.361c-0.121,0.15-0.224,0.321-0.311,0.511c-0.089,0.191-0.159,0.389-0.215,0.592
			c-0.056,0.204-0.096,0.404-0.123,0.6c-0.026,0.196-0.04,0.373-0.04,0.53c0,0.125,0.01,0.249,0.029,0.372
			c0.019,0.123,0.057,0.235,0.112,0.337c0.056,0.102,0.132,0.184,0.229,0.246c0.096,0.063,0.221,0.094,0.374,0.094
			c0.196,0,0.394-0.054,0.592-0.163s0.383-0.26,0.555-0.453c0.171-0.193,0.322-0.419,0.455-0.68c0.131-0.26,0.23-0.548,0.295-0.862
			L141.155,37.835z"/>
		<path fill="#FF9F36" d="M143.965,41.396c-0.008,0.029-0.021,0.053-0.038,0.072c-0.018,0.02-0.045,0.037-0.08,0.051
			c-0.036,0.014-0.083,0.025-0.142,0.032c-0.06,0.007-0.132,0.011-0.218,0.011c-0.089,0-0.161-0.003-0.217-0.011
			s-0.098-0.018-0.128-0.032c-0.031-0.014-0.051-0.031-0.06-0.051c-0.009-0.02-0.01-0.043-0.002-0.072l1.424-7.155
			c0.007-0.028,0.02-0.054,0.035-0.075c0.017-0.021,0.043-0.039,0.08-0.053c0.038-0.014,0.086-0.025,0.145-0.032
			c0.06-0.007,0.133-0.011,0.223-0.011c0.086,0,0.156,0.004,0.212,0.011c0.055,0.007,0.098,0.018,0.128,0.032
			s0.049,0.032,0.057,0.053c0.007,0.021,0.009,0.047,0.005,0.075L143.965,41.396z"/>
		<path fill="#FF9F36" d="M151.768,36.63c0,0.032-0.002,0.067-0.006,0.104c-0.003,0.037-0.011,0.076-0.021,0.115
			c-0.011,0.04-0.024,0.079-0.043,0.118c-0.017,0.04-0.036,0.074-0.056,0.104s-0.042,0.054-0.067,0.072
			c-0.024,0.018-0.054,0.026-0.085,0.026h-1.232l-0.541,2.688c-0.014,0.075-0.026,0.159-0.037,0.252s-0.016,0.169-0.016,0.23
			c0,0.182,0.038,0.315,0.114,0.399c0.077,0.084,0.201,0.125,0.373,0.125c0.096,0,0.181-0.008,0.251-0.024
			c0.072-0.016,0.134-0.033,0.185-0.051c0.053-0.018,0.099-0.035,0.137-0.051c0.04-0.016,0.074-0.024,0.103-0.024
			s0.051,0.01,0.066,0.03c0.017,0.02,0.024,0.056,0.024,0.109c0,0.047-0.004,0.098-0.014,0.153c-0.009,0.056-0.02,0.11-0.035,0.164
			c-0.014,0.053-0.031,0.102-0.053,0.145c-0.021,0.042-0.045,0.077-0.07,0.102c-0.028,0.025-0.07,0.05-0.128,0.075
			s-0.123,0.047-0.198,0.067c-0.075,0.019-0.154,0.035-0.238,0.045s-0.167,0.016-0.249,0.016c-0.2,0-0.373-0.021-0.52-0.064
			s-0.27-0.11-0.37-0.201c-0.1-0.091-0.174-0.205-0.222-0.343c-0.049-0.137-0.072-0.303-0.072-0.496c0-0.042,0.002-0.09,0.005-0.142
			c0.004-0.052,0.011-0.106,0.019-0.164c0.01-0.057,0.019-0.114,0.027-0.171c0.009-0.057,0.019-0.11,0.029-0.161l0.541-2.71h-0.67
			c-0.038,0-0.069-0.011-0.091-0.035c-0.021-0.023-0.032-0.068-0.032-0.137c0-0.05,0.006-0.107,0.017-0.174
			c0.011-0.066,0.026-0.127,0.048-0.185s0.05-0.105,0.083-0.145c0.034-0.039,0.074-0.059,0.12-0.059h0.675l0.23-1.146
			c0.004-0.025,0.016-0.048,0.035-0.07s0.048-0.04,0.083-0.056c0.036-0.016,0.083-0.027,0.142-0.035
			c0.06-0.007,0.132-0.011,0.217-0.011c0.086,0,0.157,0.003,0.212,0.011c0.056,0.007,0.099,0.019,0.129,0.035
			s0.05,0.035,0.059,0.056s0.012,0.045,0.008,0.07l-0.23,1.146h1.232c0.053,0,0.089,0.02,0.106,0.059
			C151.759,36.536,151.768,36.581,151.768,36.63z"/>
		<path fill="#FF9F36" d="M156.876,38.172c0,0.265-0.024,0.534-0.074,0.809s-0.126,0.54-0.228,0.795
			c-0.103,0.255-0.231,0.496-0.389,0.721c-0.156,0.225-0.342,0.421-0.555,0.589c-0.212,0.168-0.453,0.301-0.723,0.399
			c-0.269,0.098-0.57,0.147-0.902,0.147c-0.343,0-0.636-0.042-0.881-0.123c-0.244-0.082-0.445-0.202-0.603-0.359
			c-0.156-0.157-0.273-0.35-0.348-0.579c-0.075-0.228-0.113-0.487-0.113-0.776c0-0.264,0.024-0.534,0.072-0.809
			c0.049-0.275,0.125-0.539,0.228-0.793c0.104-0.253,0.233-0.493,0.389-0.72c0.155-0.227,0.34-0.424,0.552-0.592
			c0.213-0.167,0.454-0.3,0.723-0.399c0.27-0.098,0.57-0.147,0.902-0.147c0.343,0,0.637,0.042,0.881,0.126
			c0.245,0.084,0.447,0.205,0.605,0.362c0.159,0.157,0.276,0.35,0.351,0.578C156.839,37.63,156.876,37.887,156.876,38.172z
			 M155.944,38.226c0-0.178-0.019-0.339-0.056-0.482c-0.038-0.143-0.1-0.263-0.188-0.361c-0.087-0.098-0.202-0.174-0.343-0.228
			c-0.141-0.054-0.312-0.081-0.512-0.081c-0.214,0-0.408,0.039-0.584,0.115c-0.175,0.077-0.33,0.18-0.469,0.311
			c-0.137,0.13-0.257,0.283-0.358,0.458s-0.186,0.361-0.252,0.56c-0.065,0.198-0.115,0.402-0.147,0.61
			c-0.031,0.209-0.048,0.414-0.048,0.613c0,0.179,0.021,0.339,0.059,0.482c0.04,0.143,0.104,0.265,0.19,0.364
			c0.088,0.1,0.201,0.177,0.34,0.23c0.14,0.053,0.31,0.08,0.509,0.08c0.219,0,0.414-0.038,0.587-0.115
			c0.173-0.077,0.328-0.181,0.466-0.313c0.138-0.132,0.257-0.286,0.358-0.461c0.103-0.174,0.187-0.362,0.252-0.562
			c0.066-0.2,0.115-0.403,0.147-0.611C155.929,38.63,155.944,38.426,155.944,38.226z"/>
		<path fill="#FF9F36" d="M161.226,41.396c-0.007,0.029-0.02,0.053-0.037,0.072c-0.019,0.02-0.045,0.037-0.081,0.051
			c-0.035,0.014-0.082,0.025-0.142,0.032c-0.059,0.007-0.131,0.011-0.217,0.011c-0.089,0-0.161-0.003-0.217-0.011
			s-0.099-0.018-0.129-0.032c-0.029-0.014-0.05-0.031-0.059-0.051c-0.009-0.02-0.01-0.043-0.003-0.072l1.425-7.155
			c0.008-0.028,0.019-0.054,0.035-0.075c0.016-0.021,0.043-0.039,0.08-0.053s0.086-0.025,0.145-0.032
			c0.059-0.007,0.133-0.011,0.223-0.011c0.085,0,0.155,0.004,0.211,0.011c0.056,0.007,0.099,0.018,0.129,0.032
			s0.049,0.032,0.056,0.053c0.008,0.021,0.009,0.047,0.006,0.075L161.226,41.396z"/>
		<path fill="#FF9F36" d="M163.875,41.396c-0.009,0.029-0.021,0.053-0.038,0.072c-0.019,0.02-0.045,0.037-0.08,0.051
			c-0.036,0.014-0.083,0.025-0.142,0.032c-0.06,0.007-0.132,0.011-0.217,0.011c-0.09,0-0.162-0.003-0.217-0.011
			c-0.057-0.007-0.1-0.018-0.129-0.032c-0.031-0.014-0.051-0.031-0.059-0.051c-0.01-0.02-0.011-0.043-0.003-0.072l0.958-4.82
			c0.003-0.025,0.014-0.048,0.032-0.07c0.018-0.021,0.045-0.039,0.081-0.053c0.034-0.014,0.083-0.025,0.142-0.032
			c0.059-0.007,0.133-0.011,0.223-0.011c0.085,0,0.155,0.004,0.211,0.011c0.055,0.007,0.098,0.018,0.129,0.032
			c0.029,0.014,0.049,0.032,0.059,0.053c0.008,0.021,0.011,0.045,0.008,0.07L163.875,41.396z M165.262,34.954
			c-0.019,0.1-0.043,0.184-0.072,0.251c-0.031,0.068-0.071,0.123-0.12,0.164c-0.051,0.041-0.113,0.07-0.188,0.088
			c-0.075,0.018-0.166,0.027-0.273,0.027c-0.104,0-0.19-0.009-0.257-0.027c-0.068-0.018-0.118-0.047-0.15-0.088
			s-0.051-0.096-0.054-0.164c-0.004-0.067,0.003-0.151,0.021-0.251c0.021-0.1,0.049-0.183,0.081-0.249
			c0.031-0.066,0.072-0.121,0.12-0.166s0.109-0.075,0.185-0.091s0.166-0.024,0.273-0.024c0.103,0,0.188,0.008,0.254,0.024
			s0.115,0.046,0.15,0.091c0.033,0.045,0.052,0.1,0.056,0.166C165.291,34.771,165.283,34.854,165.262,34.954z"/>
		<path fill="#FF9F36" d="M170.267,36.534c0,0.036-0.006,0.072-0.017,0.11s-0.023,0.076-0.037,0.115
			c-0.133,0.389-0.281,0.783-0.447,1.181c-0.166,0.398-0.351,0.795-0.552,1.189c-0.202,0.395-0.423,0.782-0.664,1.162
			c-0.241,0.38-0.505,0.747-0.79,1.101c-0.025,0.04-0.054,0.07-0.085,0.091c-0.032,0.021-0.071,0.039-0.115,0.051
			c-0.046,0.012-0.097,0.021-0.153,0.024c-0.058,0.003-0.125,0.005-0.203,0.005c-0.111,0-0.201-0.003-0.268-0.011
			c-0.068-0.007-0.121-0.018-0.158-0.032c-0.037-0.014-0.064-0.034-0.08-0.059c-0.017-0.025-0.027-0.055-0.029-0.091l-0.713-4.568
			c-0.004-0.04-0.007-0.074-0.008-0.104c-0.003-0.03-0.003-0.058-0.003-0.083c0-0.046,0.007-0.082,0.021-0.107
			c0.014-0.024,0.038-0.044,0.069-0.059c0.032-0.014,0.075-0.024,0.132-0.03c0.055-0.005,0.128-0.008,0.222-0.008
			c0.093,0,0.168,0.002,0.226,0.008c0.056,0.005,0.101,0.015,0.131,0.027c0.029,0.013,0.051,0.031,0.062,0.054
			c0.011,0.023,0.018,0.051,0.021,0.083l0.578,3.974v0.064l0.027-0.032c0.21-0.318,0.402-0.625,0.578-0.924
			c0.174-0.298,0.338-0.606,0.487-0.924c0.15-0.317,0.292-0.651,0.426-1.001c0.134-0.35,0.271-0.735,0.41-1.157
			c0.011-0.032,0.025-0.06,0.045-0.083c0.019-0.023,0.049-0.041,0.086-0.054c0.037-0.012,0.087-0.021,0.15-0.027
			c0.062-0.005,0.139-0.008,0.232-0.008c0.086,0,0.155,0.002,0.209,0.008s0.095,0.013,0.126,0.021
			c0.029,0.009,0.051,0.021,0.064,0.038C170.26,36.494,170.267,36.512,170.267,36.534z"/>
		<path fill="#FF9F36" d="M175.255,37.562c0,0.247-0.058,0.468-0.171,0.664c-0.115,0.197-0.294,0.364-0.536,0.503
			c-0.243,0.139-0.554,0.247-0.932,0.321c-0.379,0.075-0.832,0.113-1.36,0.113h-0.567c-0.025,0.118-0.042,0.232-0.051,0.342
			c-0.01,0.111-0.014,0.214-0.014,0.311c0,0.357,0.089,0.63,0.265,0.819c0.177,0.189,0.464,0.284,0.86,0.284
			c0.228,0,0.434-0.017,0.615-0.051c0.183-0.034,0.341-0.07,0.475-0.11c0.134-0.039,0.243-0.076,0.329-0.11
			c0.086-0.034,0.145-0.051,0.177-0.051s0.056,0.012,0.072,0.035c0.016,0.023,0.024,0.056,0.024,0.099
			c0,0.036-0.004,0.079-0.011,0.128c-0.008,0.05-0.019,0.101-0.032,0.153c-0.015,0.052-0.034,0.101-0.057,0.147
			c-0.023,0.046-0.05,0.085-0.077,0.118c-0.043,0.043-0.119,0.085-0.228,0.126c-0.109,0.041-0.238,0.079-0.389,0.112
			s-0.314,0.062-0.493,0.083s-0.357,0.032-0.535,0.032c-0.318,0-0.597-0.036-0.835-0.107c-0.24-0.071-0.438-0.181-0.598-0.329
			c-0.159-0.148-0.277-0.333-0.356-0.554c-0.079-0.221-0.117-0.482-0.117-0.782c0-0.232,0.021-0.481,0.066-0.747
			c0.045-0.266,0.115-0.529,0.212-0.79s0.221-0.511,0.375-0.75c0.153-0.239,0.336-0.45,0.549-0.632
			c0.212-0.182,0.458-0.329,0.736-0.439c0.278-0.11,0.593-0.166,0.942-0.166c0.3,0,0.555,0.038,0.764,0.113
			c0.208,0.075,0.38,0.171,0.514,0.289s0.231,0.249,0.292,0.394S175.255,37.419,175.255,37.562z M174.35,37.643
			c0-0.182-0.071-0.33-0.214-0.442c-0.144-0.113-0.347-0.169-0.61-0.169c-0.232,0-0.438,0.041-0.616,0.121
			c-0.179,0.081-0.337,0.188-0.474,0.324c-0.138,0.136-0.256,0.293-0.354,0.474c-0.099,0.181-0.178,0.371-0.238,0.57h0.546
			c0.375,0,0.688-0.023,0.94-0.069c0.251-0.046,0.453-0.11,0.604-0.19c0.151-0.08,0.259-0.174,0.321-0.281
			C174.318,37.873,174.35,37.76,174.35,37.643z"/>
	</g>
	<g>
		<path fill="#9D9DA0" d="M180,35.704c0,0.765-0.6,1.365-1.382,1.365c-0.772,0-1.389-0.6-1.389-1.365
			c0-0.748,0.616-1.348,1.389-1.348C179.4,34.356,180,34.956,180,35.704z M177.574,35.704c0,0.6,0.444,1.077,1.053,1.077
			c0.592,0,1.027-0.477,1.027-1.069c0-0.6-0.436-1.085-1.036-1.085C178.019,34.627,177.574,35.112,177.574,35.704z M178.404,36.411
			h-0.313v-1.349c0.124-0.024,0.296-0.041,0.519-0.041c0.255,0,0.37,0.041,0.469,0.099c0.074,0.058,0.132,0.165,0.132,0.296
			c0,0.148-0.115,0.263-0.28,0.313v0.016c0.132,0.049,0.206,0.148,0.247,0.329c0.041,0.206,0.065,0.288,0.099,0.337h-0.337
			c-0.041-0.049-0.065-0.173-0.107-0.329c-0.024-0.148-0.106-0.214-0.279-0.214h-0.148V36.411z M178.413,35.646h0.147
			c0.173,0,0.313-0.058,0.313-0.197c0-0.124-0.091-0.206-0.288-0.206c-0.083,0-0.141,0.008-0.173,0.017V35.646z"/>
	</g>
	<g>
		<path fill="#3F5588" d="M60.934,26.282c0,3.282-2.652,5.933-5.979,5.933H38.757c-0.699,0-1.112-0.783-0.717-1.359l2.87-4.195
			c0.162-0.237,0.43-0.378,0.717-0.378h11.29c1.125,0,2.037-0.913,2.037-2.038V23.27c0-0.629-0.494-1.169-1.168-1.169h-2.861
			c-3.757,0-6.802-3.045-6.802-6.801v-3.312c0-3.326,2.652-5.979,5.933-5.979h14.666c0.582,0,1,0.562,0.833,1.12l-1.276,4.241
			c-0.11,0.367-0.448,0.618-0.832,0.618H52.139c-1.15,0-2.083,0.932-2.083,2.083v0.884c0,0.629,0.54,1.169,1.213,1.169h3.685
			c3.326,0,5.979,2.697,5.979,5.977V26.282z"/>
		<path fill="#3F5588" d="M86.091,32.215h-4.241c-0.48,0-0.869-0.389-0.869-0.869c0-0.774-0.936-1.161-1.483-0.614L78.27,31.96
			c-0.162,0.163-0.384,0.254-0.614,0.254h-7.716c-3.757,0-6.802-3.045-6.802-6.802V22.97c0-3.766,3.081-6.848,6.847-6.848h6.392
			c0.386,0,0.725,0.254,0.833,0.625l1.244,4.24c0.163,0.557-0.254,1.113-0.833,1.113h-7.335c-0.674,0-1.213,0.54-1.213,1.169v0.93
			c0,1.149,0.932,2.083,2.083,2.083h8.96c0.48,0,0.869-0.39,0.869-0.869V14.025c0-1.125-0.912-2.037-2.038-2.037H66.688
			c-0.583,0-1-0.562-0.832-1.12l1.275-4.24c0.11-0.367,0.449-0.619,0.833-0.619h12.149c3.781,0,6.848,3.066,6.848,6.848v18.489
			C86.96,31.826,86.571,32.215,86.091,32.215"/>
		<path fill="#3F5588" d="M102.615,26.932l1.09,4.195c0.143,0.55-0.272,1.088-0.841,1.088H95.99c-3.758,0-6.803-3.045-6.803-6.802
			V0.945c0-0.48,0.389-0.869,0.87-0.869h4.195c0.48,0,0.869,0.389,0.869,0.869v4.196c0,0.48,0.389,0.869,0.87,0.869h6.367
			c0.583,0,1,0.562,0.832,1.119l-1.274,4.241c-0.111,0.368-0.449,0.618-0.833,0.618H95.99c-0.481,0-0.87,0.39-0.87,0.869v11.343
			c0,1.15,0.933,2.082,2.083,2.082h4.571C102.17,26.281,102.516,26.549,102.615,26.932"/>
		<path fill="#3F5588" d="M125.229,12.856v13.425c0,3.282-2.652,5.934-5.979,5.934h-8.231c-3.757,0-6.803-3.046-6.803-6.802V11.987
			c0-3.326,2.652-5.978,5.934-5.978h8.231C122.162,6.009,125.229,9.075,125.229,12.856 M119.25,14.025
			c0-1.125-0.913-2.038-2.037-2.038h-4.981c-1.149,0-2.082,0.933-2.082,2.083v10.129c0,1.15,0.933,2.083,2.082,2.083h4.981
			c1.124,0,2.037-0.912,2.037-2.037V14.025z"/>
		<path fill="#3F5588" d="M140.064,11.988h-4.278c-1.15,0-2.083,0.932-2.083,2.083v17.276c0,0.48-0.39,0.869-0.869,0.869h-4.195
			c-0.479,0-0.869-0.389-0.869-0.869V6.878c0-0.479,0.39-0.869,0.869-0.869h4.195c0.479,0,0.869,0.39,0.869,0.869v0.023
			c0,0.771,0.93,1.16,1.479,0.619l1.279-1.26c0.162-0.161,0.382-0.25,0.609-0.25h5.905c0.699,0,1.112,0.784,0.717,1.361
			l-2.912,4.241C140.618,11.847,140.351,11.988,140.064,11.988"/>
		<path fill="#3F5588" d="M150.56,31.188V6.878c0-0.48-0.39-0.869-0.869-0.869h-4.195c-0.479,0-0.868,0.389-0.868,0.869v24.31
			c0,0.48,0.389,0.87,0.868,0.87h4.195C150.17,32.058,150.56,31.669,150.56,31.188"/>
		<path fill="#3F5588" d="M170.348,31.85l-4.696-6.596c-0.346-0.487-1.068-0.487-1.415,0l-4.695,6.596
			c-0.164,0.229-0.428,0.366-0.709,0.366h-5.148c-0.706,0-1.117-0.797-0.708-1.373l7.971-11.205c0.215-0.301,0.215-0.705,0-1.006
			l-7.976-11.25c-0.407-0.575,0.004-1.372,0.71-1.372h5.151c0.281,0,0.545,0.136,0.709,0.365l4.695,6.597
			c0.347,0.487,1.069,0.487,1.415,0l4.696-6.597c0.164-0.229,0.428-0.365,0.709-0.365h5.193c0.707,0,1.118,0.797,0.709,1.373
			l-5.956,8.375c-0.163,0.229-0.427,0.365-0.708,0.365h-2.096c-0.705,0-1.116,0.797-0.708,1.372l9.47,13.349
			c0.409,0.575-0.003,1.372-0.708,1.372h-5.196C170.775,32.215,170.512,32.079,170.348,31.85"/>
	</g>
	<polygon fill="#FF9F36" points="0,6.774 0.002,12.125 15.113,5.445 30.296,12.166 30.296,6.884 15.114,0 	"/>
	<polygon fill="#3F5588" points="15.114,7.401 0,14.17 30.386,27.72 30.386,22.316 12.014,14.138 15.114,12.771 	"/>
	<polygon fill="#3F5588" points="0.003,15.792 30.338,29.27 15.111,36.138 15.111,30.657 18.07,29.354 0.003,21.388 	"/>
	<polygon fill="#FF9F36" points="0.003,31.25 15.163,38.031 30.38,31.188 30.38,36.631 15.111,43.435 0.003,36.736 	"/>
</g>
</svg>
